<?xml version="1.0" standalone="no"?>
<!DOCTYPE svg PUBLIC "-//W3C//DTD SVG 20010904//EN"
 "http://www.w3.org/TR/2001/REC-SVG-20010904/DTD/svg10.dtd">
<svg version="1.0" xmlns="http://www.w3.org/2000/svg"
 width="507.000000pt" height="507.000000pt" viewBox="0 0 507.000000 507.000000"
 preserveAspectRatio="xMidYMid meet">
<metadata>
Created by potrace 1.11, written by Peter Selinger 2001-2013
</metadata>
<g transform="translate(0.000000,507.000000) scale(0.100000,-0.100000)"
fill="#000000" stroke="none">
<path d="M2325 4769 c-223 -15 -494 -74 -680 -148 -365 -146 -642 -327 -901
-585 -593 -593 -851 -1436 -693 -2266 40 -212 179 -610 213 -610 6 0 517 506
1136 1125 619 619 1130 1125 1135 1125 6 0 516 -506 1135 -1125 790 -790 1131
-1124 1141 -1120 24 9 123 257 164 410 23 85 60 274 75 380 16 111 16 504 0
600 -6 39 -15 99 -21 135 -5 36 -14 81 -19 100 -5 19 -14 58 -21 85 -23 99
-62 219 -99 310 -5 11 -17 40 -27 65 -65 159 -177 351 -303 519 -83 111 -277
318 -382 408 -70 61 -249 190 -327 236 -118 70 -376 197 -401 197 -6 0 -18 4
-28 10 -23 12 -184 64 -247 79 -27 7 -66 16 -85 21 -204 50 -483 68 -765 49z"/>
<path d="M1755 1639 l-769 -771 31 -26 c17 -15 44 -37 59 -49 l29 -21 -62 -64
c-35 -35 -63 -70 -62 -78 0 -18 24 -38 164 -130 118 -79 363 -210 392 -210 10
0 227 209 508 490 l490 490 490 -490 c322 -322 497 -490 510 -490 29 0 197 86
350 180 84 51 215 148 215 159 0 4 -29 38 -65 75 l-66 68 23 20 c13 11 35 27
50 36 15 9 30 23 33 31 4 10 -94 115 -309 330 -173 174 -517 520 -765 769
-247 248 -456 452 -463 452 -8 0 -360 -347 -783 -771z"/>
</g>
</svg>
